<svg width="16" height="16" viewBox="0 0 16 16" fill="none" xmlns="http://www.w3.org/2000/svg">
<path d="M3.45603 2.29065L3.91002 3.18166L3.91002 3.18166L3.45603 2.29065ZM2.29065 3.45603L1.39964 3.00203L1.39964 3.00204L2.29065 3.45603ZM12.544 13.7094L12.998 14.6004L12.998 14.6004L12.544 13.7094ZM13.7094 12.544L12.8183 12.09L12.8183 12.09L13.7094 12.544ZM3.45603 13.7094L3.91002 12.8183L3.91002 12.8183L3.45603 13.7094ZM2.29065 12.544L3.18166 12.09L3.18166 12.09L2.29065 12.544ZM15 8C15 7.44772 14.5523 7 14 7C13.4477 7 13 7.44772 13 8H15ZM8 3C8.55228 3 9 2.55228 9 2C9 1.44772 8.55228 1 8 1V3ZM8.16882 6.99772L9.1175 7.31395L9.1175 7.31395L8.16882 6.99772ZM8.47734 6.07214L7.52866 5.75591L7.52866 5.75591L8.47734 6.07214ZM8.7957 5.55703L9.5028 6.26414L9.5028 6.26414L8.7957 5.55703ZM11.8703 2.48247L11.1632 1.77537L11.1632 1.77537L11.8703 2.48247ZM13.5175 4.12974L14.2246 4.83685L14.2246 4.83685L13.5175 4.12974ZM10.443 7.2043L9.73586 6.4972L9.73586 6.4972L10.443 7.2043ZM9.92786 7.52266L10.2441 8.47134L10.2441 8.47134L9.92786 7.52266ZM9.00228 7.83118L9.3185 8.77987L9.3185 8.77987L9.00228 7.83118ZM10.2741 7.36192L10.8763 8.16023L10.8763 8.16023L10.2741 7.36192ZM10.1444 7.44211L9.69964 6.54643L9.69964 6.54643L10.1444 7.44211ZM13.5175 2.48247L12.8104 3.18958L12.8104 3.18958L13.5175 2.48247ZM13.9144 2.9404L14.8104 2.49639L14.8104 2.49639L13.9144 2.9404ZM13.9144 3.67181L14.8104 4.11583L14.8104 4.11583L13.9144 3.67181ZM12.3282 2.08564L12.7722 2.98166L12.7722 2.98166L12.3282 2.08564ZM13.0596 2.08564L12.6156 2.98166L12.6156 2.98166L13.0596 2.08564ZM8.55789 5.85565L9.45357 6.30035L9.45357 6.30035L8.55789 5.85565ZM8.63808 5.7259L7.83977 5.12366L7.83977 5.12366L8.63808 5.7259ZM8.01533 7.73509L8.95724 7.39922L8.95724 7.39922L8.01533 7.73509ZM8.2649 7.98467L7.92903 8.92657L7.92903 8.92657L8.2649 7.98467ZM6.26667 15H9.73333V13H6.26667V15ZM1 6.26667V9.73333H3V6.26667H1ZM6.26667 1C5.53643 1 4.92861 0.999222 4.43377 1.03965C3.92726 1.08104 3.45172 1.17052 3.00203 1.39964L3.91002 3.18166C4.03076 3.12013 4.21381 3.06429 4.59664 3.03301C4.99114 3.00078 5.50343 3 6.26667 3V1ZM3 6.26667C3 5.50343 3.00078 4.99114 3.03301 4.59664C3.06429 4.21381 3.12013 4.03076 3.18166 3.91002L1.39964 3.00204C1.17052 3.45172 1.08104 3.92726 1.03965 4.43377C0.999222 4.92861 1 5.53643 1 6.26667H3ZM3.00203 1.39964C2.31211 1.75118 1.75118 2.31211 1.39964 3.00203L3.18166 3.91002C3.34144 3.59641 3.59641 3.34144 3.91002 3.18166L3.00203 1.39964ZM9.73333 15C10.4636 15 11.0714 15.0008 11.5662 14.9603C12.0727 14.919 12.5483 14.8295 12.998 14.6004L12.09 12.8183C11.9692 12.8799 11.7862 12.9357 11.4034 12.967C11.0089 12.9992 10.4966 13 9.73333 13V15ZM13 9.73333C13 10.4966 12.9992 11.0089 12.967 11.4034C12.9357 11.7862 12.8799 11.9692 12.8183 12.09L14.6004 12.998C14.8295 12.5483 14.919 12.0727 14.9603 11.5662C15.0008 11.0714 15 10.4636 15 9.73333H13ZM12.998 14.6004C13.6879 14.2488 14.2488 13.6879 14.6004 12.998L12.8183 12.09C12.6586 12.4036 12.4036 12.6586 12.09 12.8183L12.998 14.6004ZM6.26667 13C5.50343 13 4.99114 12.9992 4.59664 12.967C4.21381 12.9357 4.03076 12.8799 3.91002 12.8183L3.00203 14.6004C3.45172 14.8295 3.92726 14.919 4.43377 14.9603C4.92861 15.0008 5.53643 15 6.26667 15V13ZM1 9.73333C1 10.4636 0.999222 11.0714 1.03965 11.5662C1.08104 12.0727 1.17052 12.5483 1.39964 12.998L3.18166 12.09C3.12013 11.9692 3.06429 11.7862 3.03301 11.4034C3.00078 11.0089 3 10.4966 3 9.73333H1ZM3.91002 12.8183C3.59641 12.6586 3.34144 12.4036 3.18166 12.09L1.39964 12.998C1.75118 13.6879 2.31211 14.2488 3.00203 14.6004L3.91002 12.8183ZM15 9.73333V8H13V9.73333H15ZM6.26667 3H8V1H6.26667V3ZM9.1175 7.31395L9.42603 6.38837L7.52866 5.75591L7.22013 6.6815L9.1175 7.31395ZM9.5028 6.26414L12.5774 3.18958L11.1632 1.77537L8.08859 4.84993L9.5028 6.26414ZM12.8104 3.42264L9.73586 6.4972L11.1501 7.91141L14.2246 4.83685L12.8104 3.42264ZM9.61163 6.57397L8.68605 6.8825L9.3185 8.77987L10.2441 8.47134L9.61163 6.57397ZM9.73586 6.4972C9.7148 6.51826 9.69895 6.5341 9.6852 6.5477C9.67155 6.5612 9.66312 6.56936 9.65757 6.57461C9.64773 6.58393 9.65532 6.57608 9.67186 6.5636L10.8763 8.16023C10.9905 8.07413 11.0869 7.97458 11.1501 7.91141L9.73586 6.4972ZM10.2441 8.47134C10.3288 8.44309 10.461 8.40136 10.5891 8.33778L9.69964 6.54643C9.71821 6.53721 9.72862 6.53393 9.71589 6.53857C9.70871 6.54119 9.69764 6.54508 9.67946 6.55125C9.66115 6.55746 9.63989 6.56455 9.61163 6.57397L10.2441 8.47134ZM9.67186 6.5636C9.68058 6.55703 9.68988 6.55128 9.69964 6.54643L10.5891 8.33778C10.6901 8.28762 10.7863 8.22818 10.8763 8.16023L9.67186 6.5636ZM12.8104 3.18958C12.8677 3.24684 12.9126 3.29176 12.951 3.33103C12.9894 3.37028 13.0144 3.3969 13.0317 3.41624C13.0674 3.45627 13.0449 3.4381 13.0183 3.38442L14.8104 2.49639C14.6591 2.19116 14.3921 1.94282 14.2246 1.77537L12.8104 3.18958ZM14.2246 4.83685C14.3921 4.6694 14.6591 4.42106 14.8104 4.11583L13.0183 3.2278C13.0449 3.17412 13.0674 3.15595 13.0317 3.19598C13.0144 3.21532 12.9894 3.24194 12.951 3.28118C12.9126 3.32046 12.8677 3.36538 12.8104 3.42264L14.2246 4.83685ZM13.0183 3.38442C12.9939 3.33507 12.9939 3.27714 13.0183 3.2278L14.8104 4.11583C15.0632 3.60562 15.0632 3.0066 14.8104 2.49639L13.0183 3.38442ZM12.5774 3.18958C12.6346 3.13232 12.6795 3.08742 12.7188 3.049C12.7581 3.0106 12.7847 2.98557 12.804 2.9683C12.8441 2.93256 12.8259 2.95506 12.7722 2.98166L11.8842 1.18962C11.5789 1.34088 11.3306 1.60792 11.1632 1.77537L12.5774 3.18958ZM14.2246 1.77537C14.0572 1.60792 13.8088 1.34088 13.5036 1.18962L12.6156 2.98166C12.5619 2.95506 12.5437 2.93256 12.5838 2.9683C12.6031 2.98557 12.6297 3.0106 12.669 3.049C12.7082 3.08742 12.7532 3.13232 12.8104 3.18958L14.2246 1.77537ZM12.7722 2.98166C12.7229 3.00611 12.6649 3.00611 12.6156 2.98166L13.5036 1.18962C12.9934 0.936792 12.3944 0.936792 11.8842 1.18962L12.7722 2.98166ZM9.42603 6.38837C9.43544 6.36011 9.44253 6.33885 9.44875 6.32054C9.45492 6.30236 9.45881 6.29129 9.46143 6.28411C9.46607 6.27137 9.46279 6.28179 9.45357 6.30035L7.66222 5.41094C7.59864 5.53899 7.55691 5.67117 7.52866 5.75591L9.42603 6.38837ZM8.08859 4.84993C8.02542 4.91309 7.92587 5.00953 7.83977 5.12366L9.4364 6.32814C9.42392 6.34468 9.41607 6.35228 9.42539 6.34243C9.43064 6.33688 9.4388 6.32845 9.4523 6.3148C9.4659 6.30105 9.48174 6.2852 9.5028 6.26414L8.08859 4.84993ZM9.45357 6.30035C9.44872 6.31013 9.44297 6.31943 9.4364 6.32814L7.83977 5.12366C7.77183 5.21372 7.71239 5.3099 7.66222 5.41094L9.45357 6.30035ZM7.22013 6.6815C7.15937 6.86378 7.0909 7.06604 7.0504 7.23838C7.01339 7.39588 6.94813 7.71961 7.07343 8.07097L8.95724 7.39922C8.99814 7.51392 9.00148 7.60881 8.9996 7.65807C8.99791 7.70254 8.99147 7.72101 8.99737 7.69588C9.00285 7.67258 9.01384 7.63262 9.03541 7.56409C9.05677 7.49624 9.08318 7.41692 9.1175 7.31395L7.22013 6.6815ZM8.68605 6.8825C8.58308 6.91682 8.50376 6.94323 8.43591 6.96459C8.36738 6.98615 8.32742 6.99715 8.30412 7.00263C8.27899 7.00853 8.29745 7.00209 8.34193 7.0004C8.39119 6.99852 8.48608 7.00186 8.60078 7.04276L7.92903 8.92657C8.2804 9.05187 8.60412 8.98661 8.76162 8.9496C8.93396 8.9091 9.13622 8.84063 9.3185 8.77987L8.68605 6.8825ZM7.07343 8.07097C7.21576 8.47012 7.52987 8.78423 7.92903 8.92657L8.60078 7.04276C8.76708 7.10206 8.89794 7.23293 8.95724 7.39922L7.07343 8.07097Z" fill="#1ABC9C"/>
</svg>
