<svg width="184" height="229" viewBox="0 0 184 229" fill="none" xmlns="http://www.w3.org/2000/svg">
    <g filter="url(#filter0_dd_1_827)">
        <circle cx="111.107" cy="200.897" r="12.2538" fill="url(#paint0_linear_1_827)"
            shape-rendering="crispEdges" />
    </g>
    <g filter="url(#filter1_dd_1_827)">
        <circle cx="148.477" cy="161.787" r="9.06551" fill="url(#paint1_linear_1_827)"
            shape-rendering="crispEdges" />
    </g>
    <circle cx="92" cy="89" r="92" fill="url(#paint2_radial_1_827)" fill-opacity="0.6" />
    <g filter="url(#filter2_d_1_827)">
        <ellipse cx="110.924" cy="109.638" rx="55.1219" ry="34.5323"
            fill="url(#paint3_linear_1_827)" fill-opacity="0.5" shape-rendering="crispEdges" />
        <path
            d="M110.924 75.3379C126.108 75.338 139.845 79.1946 149.777 85.417C159.713 91.6415 165.812 100.211 165.812 109.638C165.812 119.065 159.713 127.634 149.777 133.858C139.845 140.081 126.108 143.937 110.924 143.938C95.7391 143.938 82.0029 140.081 72.0703 133.858C62.1345 127.634 56.0342 119.065 56.0342 109.638C56.0342 100.211 62.1346 91.6415 72.0703 85.417C82.0029 79.1946 95.7391 75.3379 110.924 75.3379Z"
            stroke="url(#paint4_linear_1_827)" stroke-opacity="0.6" stroke-width="0.465527"
            shape-rendering="crispEdges" />
    </g>
    <circle cx="110.923" cy="77.4379" r="69.9308" fill="url(#paint5_radial_1_827)" />
    <ellipse cx="110.923" cy="89.0002" rx="68.3691" ry="39.9973" fill="url(#paint6_linear_1_827)"
        fill-opacity="0.5" />
    <path
        d="M110.923 49.2354C129.769 49.2354 146.819 53.7052 159.149 60.9189C171.486 68.136 179.059 78.072 179.06 89C179.06 99.9281 171.486 109.865 159.149 117.082C146.819 124.296 129.768 128.765 110.923 128.765C92.0773 128.765 75.0271 124.296 62.6963 117.082C50.3599 109.865 42.7861 99.9281 42.7861 89C42.7862 78.072 50.3599 68.136 62.6963 60.9189C75.0271 53.7052 92.0772 49.2354 110.923 49.2354Z"
        stroke="url(#paint7_linear_1_827)" stroke-opacity="0.6" stroke-width="0.465527" />
    <circle cx="110.923" cy="77.4377" r="51.7992" fill="url(#paint8_radial_1_827)" />
    <circle cx="110.923" cy="77.4377" r="51.7992" fill="url(#paint9_radial_1_827)" />
    <g filter="url(#filter3_d_1_827)">
        <ellipse cx="110.923" cy="64.1682" rx="67.6737" ry="39.0723"
            fill="url(#paint10_linear_1_827)" fill-opacity="0.5" shape-rendering="crispEdges" />
        <path
            d="M110.923 25.3283C129.577 25.3283 146.454 29.6946 158.659 36.7414C170.871 43.7918 178.364 53.4971 178.364 64.1682C178.364 74.8392 170.871 84.5445 158.659 91.5949C146.454 98.6417 129.577 103.008 110.923 103.008C92.269 103.008 75.392 98.6417 63.1868 91.5949C50.9755 84.5445 43.4818 74.8393 43.4818 64.1682C43.4818 53.497 50.9755 43.7918 63.1868 36.7414C75.392 29.6946 92.269 25.3283 110.923 25.3283Z"
            stroke="url(#paint11_linear_1_827)" stroke-opacity="0.6" stroke-width="0.465527"
            shape-rendering="crispEdges" />
    </g>
    <g filter="url(#filter4_d_1_827)">
        <ellipse cx="110.923" cy="43.9919" rx="52.5128" ry="33.9429"
            fill="url(#paint12_linear_1_827)" fill-opacity="0.5" shape-rendering="crispEdges" />
        <path
            d="M110.923 10.2814C125.386 10.2814 138.469 14.0711 147.929 20.1857C157.391 26.302 163.203 34.7247 163.203 43.9924C163.203 53.2598 157.391 61.6819 147.929 67.798C138.469 73.9127 125.386 77.7023 110.923 77.7023C96.4599 77.7023 83.3769 73.9127 73.9169 67.798C64.4546 61.6819 58.6427 53.2598 58.6425 43.9924C58.6425 34.7247 64.4545 26.302 73.9169 20.1857C83.3769 14.0711 96.4599 10.2815 110.923 10.2814Z"
            stroke="url(#paint13_linear_1_827)" stroke-opacity="0.6" stroke-width="0.465527"
            shape-rendering="crispEdges" />
    </g>
    <ellipse cx="110.924" cy="32.2025" rx="32.6853" ry="22.1535" fill="url(#paint14_linear_1_827)"
        fill-opacity="0.5" />
    <path
        d="M110.924 10.2814C119.909 10.2815 128.034 12.7511 133.905 16.7307C139.778 20.711 143.376 26.1852 143.376 32.2023C143.376 38.2196 139.778 43.6945 133.905 47.675C128.034 51.6545 119.909 54.1232 110.924 54.1232C101.939 54.1232 93.8139 51.6545 87.9424 47.675C82.0697 43.6945 78.4707 38.2196 78.4707 32.2023C78.4708 26.1851 82.0697 20.7111 87.9424 16.7307C93.8139 12.7511 101.938 10.2814 110.924 10.2814Z"
        stroke="url(#paint15_linear_1_827)" stroke-opacity="0.6" stroke-width="0.465527" />
    <ellipse cx="110.923" cy="24.6398" rx="18.9232" ry="13.0204" fill="url(#paint16_linear_1_827)"
        fill-opacity="0.5" />
    <path
        d="M110.923 11.8519C116.107 11.8519 120.791 13.2982 124.172 15.6244C127.554 17.9513 129.613 21.1431 129.613 24.64C129.613 28.1368 127.554 31.3277 124.172 33.6546C120.791 35.9809 116.107 37.4271 110.923 37.4271C105.739 37.427 101.056 35.9808 97.675 33.6546C94.2931 31.3277 92.2327 28.1368 92.2326 24.64C92.2326 21.1431 94.2931 17.9513 97.675 15.6244C101.056 13.2983 105.739 11.852 110.923 11.8519Z"
        stroke="url(#paint17_linear_1_827)" stroke-opacity="0.6" stroke-width="0.465527" />
    <circle cx="110.923" cy="77.4378" r="69.9308" fill="url(#paint18_radial_1_827)"
        fill-opacity="0.3" />
    <defs>
        <filter id="filter0_dd_1_827" x="82.5602" y="171.418" width="57.0946" height="57.0946"
            filterUnits="userSpaceOnUse" color-interpolation-filters="sRGB">
            <feFlood flood-opacity="0" result="BackgroundImageFix" />
            <feColorMatrix in="SourceAlpha" type="matrix"
                values="0 0 0 0 0 0 0 0 0 0 0 0 0 0 0 0 0 0 127 0" result="hardAlpha" />
            <feOffset dy="-0.931053" />
            <feGaussianBlur stdDeviation="8.14672" />
            <feComposite in2="hardAlpha" operator="out" />
            <feColorMatrix type="matrix"
                values="0 0 0 0 0.371081 0 0 0 0 0.235903 0 0 0 0 0.658333 0 0 0 1 0" />
            <feBlend mode="normal" in2="BackgroundImageFix" result="effect1_dropShadow_1_827" />
            <feColorMatrix in="SourceAlpha" type="matrix"
                values="0 0 0 0 0 0 0 0 0 0 0 0 0 0 0 0 0 0 127 0" result="hardAlpha" />
            <feOffset dy="-0.931053" />
            <feGaussianBlur stdDeviation="4.65527" />
            <feComposite in2="hardAlpha" operator="out" />
            <feColorMatrix type="matrix"
                values="0 0 0 0 0.48825 0 0 0 0 0.372778 0 0 0 0 0.733333 0 0 0 1 0" />
            <feBlend mode="normal" in2="effect1_dropShadow_1_827" result="effect2_dropShadow_1_827" />
            <feBlend mode="normal" in="SourceGraphic" in2="effect2_dropShadow_1_827" result="shape" />
        </filter>
        <filter id="filter1_dd_1_827" x="123.118" y="135.497" width="50.7179" height="50.7179"
            filterUnits="userSpaceOnUse" color-interpolation-filters="sRGB">
            <feFlood flood-opacity="0" result="BackgroundImageFix" />
            <feColorMatrix in="SourceAlpha" type="matrix"
                values="0 0 0 0 0 0 0 0 0 0 0 0 0 0 0 0 0 0 127 0" result="hardAlpha" />
            <feOffset dy="-0.931053" />
            <feGaussianBlur stdDeviation="8.14672" />
            <feComposite in2="hardAlpha" operator="out" />
            <feColorMatrix type="matrix"
                values="0 0 0 0 0.371081 0 0 0 0 0.235903 0 0 0 0 0.658333 0 0 0 1 0" />
            <feBlend mode="normal" in2="BackgroundImageFix" result="effect1_dropShadow_1_827" />
            <feColorMatrix in="SourceAlpha" type="matrix"
                values="0 0 0 0 0 0 0 0 0 0 0 0 0 0 0 0 0 0 127 0" result="hardAlpha" />
            <feOffset dy="-0.931053" />
            <feGaussianBlur stdDeviation="4.65527" />
            <feComposite in2="hardAlpha" operator="out" />
            <feColorMatrix type="matrix"
                values="0 0 0 0 0.48825 0 0 0 0 0.372778 0 0 0 0 0.733333 0 0 0 1 0" />
            <feBlend mode="normal" in2="effect1_dropShadow_1_827" result="effect2_dropShadow_1_827" />
            <feBlend mode="normal" in="SourceGraphic" in2="effect2_dropShadow_1_827" result="shape" />
        </filter>
        <filter id="filter2_d_1_827" x="51.1465" y="70.9158" width="119.554" height="78.3752"
            filterUnits="userSpaceOnUse" color-interpolation-filters="sRGB">
            <feFlood flood-opacity="0" result="BackgroundImageFix" />
            <feColorMatrix in="SourceAlpha" type="matrix"
                values="0 0 0 0 0 0 0 0 0 0 0 0 0 0 0 0 0 0 127 0" result="hardAlpha" />
            <feOffset dy="0.465527" />
            <feGaussianBlur stdDeviation="2.32763" />
            <feComposite in2="hardAlpha" operator="out" />
            <feColorMatrix type="matrix"
                values="0 0 0 0 0.440043 0 0 0 0 0.20092 0 0 0 0 0.679167 0 0 0 0.3 0" />
            <feBlend mode="normal" in2="BackgroundImageFix" result="effect1_dropShadow_1_827" />
            <feBlend mode="normal" in="SourceGraphic" in2="effect1_dropShadow_1_827" result="shape" />
        </filter>
        <filter id="filter3_d_1_827" x="40.9217" y="23.2338" width="140.003" height="82.7998"
            filterUnits="userSpaceOnUse" color-interpolation-filters="sRGB">
            <feFlood flood-opacity="0" result="BackgroundImageFix" />
            <feColorMatrix in="SourceAlpha" type="matrix"
                values="0 0 0 0 0 0 0 0 0 0 0 0 0 0 0 0 0 0 127 0" result="hardAlpha" />
            <feOffset dy="0.465527" />
            <feGaussianBlur stdDeviation="1.16382" />
            <feComposite in2="hardAlpha" operator="out" />
            <feColorMatrix type="matrix"
                values="0 0 0 0 0.369333 0 0 0 0 0.0916667 0 0 0 0 0.5 0 0 0 0.15 0" />
            <feBlend mode="normal" in2="BackgroundImageFix" result="effect1_dropShadow_1_827" />
            <feBlend mode="normal" in="SourceGraphic" in2="effect1_dropShadow_1_827" result="shape" />
        </filter>
        <filter id="filter4_d_1_827" x="55.3841" y="7.02309" width="112.009" height="74.8687"
            filterUnits="userSpaceOnUse" color-interpolation-filters="sRGB">
            <feFlood flood-opacity="0" result="BackgroundImageFix" />
            <feColorMatrix in="SourceAlpha" type="matrix"
                values="0 0 0 0 0 0 0 0 0 0 0 0 0 0 0 0 0 0 127 0" result="hardAlpha" />
            <feOffset dx="0.465527" dy="0.465527" />
            <feGaussianBlur stdDeviation="1.74573" />
            <feComposite in2="hardAlpha" operator="out" />
            <feColorMatrix type="matrix"
                values="0 0 0 0 0.440043 0 0 0 0 0.20092 0 0 0 0 0.679167 0 0 0 0.2 0" />
            <feBlend mode="normal" in2="BackgroundImageFix" result="effect1_dropShadow_1_827" />
            <feBlend mode="normal" in="SourceGraphic" in2="effect1_dropShadow_1_827" result="shape" />
        </filter>
        <linearGradient id="paint0_linear_1_827" x1="111.107" y1="183.315" x2="111.107" y2="226.292"
            gradientUnits="userSpaceOnUse">
            <stop stop-color="white" />
            <stop offset="0.223958" stop-color="#6BE4FF" />
            <stop offset="0.623188" stop-color="#371B73" stop-opacity="0.6" />
            <stop offset="1" stop-color="#0A1153" stop-opacity="0.4" />
        </linearGradient>
        <linearGradient id="paint1_linear_1_827" x1="148.477" y1="148.779" x2="148.477" y2="180.574"
            gradientUnits="userSpaceOnUse">
            <stop stop-color="white" />
            <stop offset="0.223958" stop-color="#6BE4FF" />
            <stop offset="0.623188" stop-color="#371B73" stop-opacity="0.6" />
            <stop offset="1" stop-color="#0A1153" stop-opacity="0.4" />
        </linearGradient>
        <radialGradient id="paint2_radial_1_827" cx="0" cy="0" r="1" gradientUnits="userSpaceOnUse"
            gradientTransform="translate(92 89) rotate(90) scale(92)">
            <stop stop-color="#FF65C1" />
            <stop offset="1" stop-color="#FF65C1" stop-opacity="0" />
        </radialGradient>
        <linearGradient id="paint3_linear_1_827" x1="110.924" y1="75.1055" x2="110.924" y2="144.17"
            gradientUnits="userSpaceOnUse">
            <stop stop-color="#13154D" />
            <stop offset="1" stop-color="#8E92EE" stop-opacity="0" />
        </linearGradient>
        <linearGradient id="paint4_linear_1_827" x1="138.301" y1="113.992" x2="141.42" y2="148.829"
            gradientUnits="userSpaceOnUse">
            <stop stop-color="white" stop-opacity="0" />
            <stop offset="1" stop-color="white" />
        </linearGradient>
        <radialGradient id="paint5_radial_1_827" cx="0" cy="0" r="1" gradientUnits="userSpaceOnUse"
            gradientTransform="translate(40.9924 102.877) rotate(-19.6638) scale(148.523)">
            <stop offset="0.249306" stop-color="white" />
            <stop offset="0.48315" stop-color="#FF8FED" stop-opacity="0.5" />
            <stop offset="0.627037" stop-color="#220C7A" stop-opacity="0.5" />
        </radialGradient>
        <linearGradient id="paint6_linear_1_827" x1="48.133" y1="97.5008" x2="177.718" y2="82.8744"
            gradientUnits="userSpaceOnUse">
            <stop stop-color="white" />
            <stop offset="1" stop-color="#12178E" stop-opacity="0.4" />
        </linearGradient>
        <linearGradient id="paint7_linear_1_827" x1="121.778" y1="145.949" x2="101.092" y2="96.5963"
            gradientUnits="userSpaceOnUse">
            <stop offset="0.0011346" stop-color="white" />
            <stop offset="1" stop-color="white" stop-opacity="0" />
        </linearGradient>
        <radialGradient id="paint8_radial_1_827" cx="0" cy="0" r="1" gradientUnits="userSpaceOnUse"
            gradientTransform="translate(71.7449 103.741) rotate(-14.8494) scale(102.636)">
            <stop offset="0.239373" stop-color="white" />
            <stop offset="0.410099" stop-color="#FFCEF1" />
            <stop offset="0.67492" stop-color="#B6B9FF" />
            <stop offset="0.861176" stop-color="#FFA8E7" />
            <stop offset="1" stop-color="white" />
        </radialGradient>
        <radialGradient id="paint9_radial_1_827" cx="0" cy="0" r="1" gradientUnits="userSpaceOnUse"
            gradientTransform="translate(159.997 117.476) rotate(-121.724) scale(59.0164)">
            <stop stop-color="#3F52FF" />
            <stop offset="1" stop-color="#3F52FF" stop-opacity="0" />
        </radialGradient>
        <linearGradient id="paint10_linear_1_827" x1="44.7066" y1="61.4752" x2="178.597"
            y2="65.6349" gradientUnits="userSpaceOnUse">
            <stop stop-color="white" />
            <stop offset="1" stop-color="#5653FF" stop-opacity="0.2" />
        </linearGradient>
        <linearGradient id="paint11_linear_1_827" x1="102.011" y1="130.827" x2="97.8039"
            y2="67.0925" gradientUnits="userSpaceOnUse">
            <stop stop-color="white" />
            <stop offset="1" stop-color="white" stop-opacity="0" />
        </linearGradient>
        <linearGradient id="paint12_linear_1_827" x1="110.923" y1="10.049" x2="110.923" y2="77.9348"
            gradientUnits="userSpaceOnUse">
            <stop stop-color="#13154D" stop-opacity="0.5" />
            <stop offset="1" stop-color="#8E92EE" stop-opacity="0" />
        </linearGradient>
        <linearGradient id="paint13_linear_1_827" x1="120.101" y1="92.6731" x2="127.066"
            y2="17.6059" gradientUnits="userSpaceOnUse">
            <stop stop-color="white" />
            <stop offset="1" stop-color="white" stop-opacity="0" />
        </linearGradient>
        <linearGradient id="paint14_linear_1_827" x1="110.924" y1="10.049" x2="110.924" y2="54.356"
            gradientUnits="userSpaceOnUse">
            <stop stop-color="#13154D" />
            <stop offset="1" stop-color="#8E92EE" stop-opacity="0" />
        </linearGradient>
        <linearGradient id="paint15_linear_1_827" x1="124.001" y1="86.9535" x2="110.924" y2="10.049"
            gradientUnits="userSpaceOnUse">
            <stop stop-color="white" />
            <stop offset="1" stop-color="white" stop-opacity="0" />
        </linearGradient>
        <linearGradient id="paint16_linear_1_827" x1="110.923" y1="11.6195" x2="110.923"
            y2="37.6602" gradientUnits="userSpaceOnUse">
            <stop stop-color="#13154D" />
            <stop offset="1" stop-color="#8E92EE" stop-opacity="0" />
        </linearGradient>
        <linearGradient id="paint17_linear_1_827" x1="121.141" y1="65.1152" x2="110.923"
            y2="11.6195" gradientUnits="userSpaceOnUse">
            <stop stop-color="white" />
            <stop offset="1" stop-color="white" stop-opacity="0" />
        </linearGradient>
        <radialGradient id="paint18_radial_1_827" cx="0" cy="0" r="1" gradientUnits="userSpaceOnUse"
            gradientTransform="translate(40.9924 102.877) rotate(-19.6638) scale(148.523)">
            <stop offset="0.249306" stop-color="white" />
            <stop offset="0.48315" stop-color="#FF8FED" stop-opacity="0.5" />
            <stop offset="0.627037" stop-color="#58DAEBFF" stop-opacity="0" />
        </radialGradient>
    </defs>
</svg>
    