<svg width="16" height="16" viewBox="0 0 16 16" fill="none" xmlns="http://www.w3.org/2000/svg">
<path d="M1.94032 8.78117C1.7126 8.28576 1.7126 7.71423 1.94032 7.21882C2.99439 4.92561 5.31171 3.33333 8.00093 3.33333C10.6902 3.33333 13.0075 4.92561 14.0615 7.21882C14.2893 7.71423 14.2893 8.28576 14.0615 8.78117C13.0075 11.0744 10.6902 12.6667 8.00093 12.6667C5.31171 12.6667 2.99439 11.0744 1.94032 8.78117Z" stroke="#2743A0" stroke-width="2"/>
<path d="M10.0009 8C10.0009 9.10456 9.1055 10 8.00093 10C6.89636 10 6.00093 9.10456 6.00093 8C6.00093 6.89543 6.89636 5.99999 8.00093 5.99999C9.1055 5.99999 10.0009 6.89543 10.0009 8Z" stroke="#2743A0" stroke-width="2"/>
</svg>
